<svg xmlns="http://www.w3.org/2000/svg" width="16px" height="16px" viewBox="0 0 2048 2048">
	<rect fill-opacity="0.6" x="0" y="0" width="2048" height="2048" rx="1024" ry="1024" fill="#40b6e0"></rect>
	<g transform="scale(0.82)"><path fill-opacity="0.7" transform="translate(675.84, 2006.56) rotate(180) scale(-1, 1)" fill="#231f20" d="M373 170h686v-170h-907v170q187 197 327 348t193 213q100 122 135 197.5t35 154.5q0 125 -73.5 196t-201.5 71q-91 0 -191 -33t-212 -100v204q103 49 202.5 74t196.5 25q219 0 352.5 -116.5t133.5 -305.5q0 -96 -44.5 -192t-144.5 -212q-56 -65 -162.5 -180t-324.5 -344z "></path></g>
</svg>