<svg xmlns="http://www.w3.org/2000/svg" width="16px" height="16px" viewBox="0 0 2048 2048">
	<rect fill-opacity="0.6" x="0" y="0" width="2048" height="2048" rx="1024" ry="1024" fill="#40b6e0"></rect>
	<g transform="scale(0.82)"><path fill-opacity="0.7" transform="translate(675.84, 2006.56) rotate(180) scale(-1, 1)" fill="#231f20" d="M776 799q147 -39 225 -138.5t78 -248.5q0 -206 -138.5 -323.5t-383.5 -117.5q-103 0 -210 19t-210 55v201q102 -53 201 -79t197 -26q166 0 255 75t89 216q0 130 -89 206.5t-241 76.5h-154v166h154q139 0 217 61t78 170q0 115 -72.5 176.5t-206.5 61.5q-89 0 -184 -20 t-199 -60v186q121 32 215.5 48t167.5 16q218 0 348.5 -109.5t130.5 -290.5q0 -123 -68.5 -205t-199.5 -116z"></path></g>
</svg>